<svg width="222" height="43" viewBox="0 0 222 43" fill="none" xmlns="http://www.w3.org/2000/svg">
<g clip-path="url(#clip0_123_2)">
<path d="M51.26 42V-2.86102e-06H58.46L78.68 30.36V-2.86102e-06H85.88V42H78.68L58.46 11.7V42H51.26ZM108.246 42.72C105.246 42.72 102.606 42.08 100.326 40.8C98.0464 39.48 96.2664 37.64 94.9864 35.28C93.7064 32.92 93.0664 30.2 93.0664 27.12C93.0664 23.92 93.6864 21.12 94.9264 18.72C96.2064 16.32 97.9864 14.44 100.266 13.08C102.586 11.72 105.266 11.04 108.306 11.04C111.266 11.04 113.846 11.7 116.046 13.02C118.246 14.34 119.946 16.12 121.146 18.36C122.346 20.56 122.946 23.04 122.946 25.8C122.946 26.2 122.946 26.64 122.946 27.12C122.946 27.6 122.906 28.1 122.826 28.62H98.2264V24H115.686C115.606 21.8 114.866 20.08 113.466 18.84C112.066 17.56 110.326 16.92 108.246 16.92C106.766 16.92 105.406 17.26 104.166 17.94C102.926 18.62 101.946 19.64 101.226 21C100.506 22.32 100.146 24 100.146 26.04V27.78C100.146 29.66 100.486 31.28 101.166 32.64C101.886 34 102.846 35.04 104.046 35.76C105.286 36.44 106.666 36.78 108.186 36.78C109.866 36.78 111.246 36.42 112.326 35.7C113.446 34.98 114.266 34.02 114.786 32.82H122.106C121.546 34.7 120.626 36.4 119.346 37.92C118.066 39.4 116.486 40.58 114.606 41.46C112.726 42.3 110.606 42.72 108.246 42.72ZM124.841 42L135.521 26.88L124.841 11.76H132.581L140.141 22.74L147.701 11.76H155.441L144.761 26.88L155.441 42H147.701L140.141 31.02L132.581 42H124.841ZM171.81 42.72C169.37 42.72 167.27 42.24 165.51 41.28C163.79 40.28 162.47 38.8 161.55 36.84C160.63 34.84 160.17 32.38 160.17 29.46V11.76H167.37V28.74C167.37 31.34 167.91 33.32 168.99 34.68C170.11 36 171.79 36.66 174.03 36.66C175.47 36.66 176.75 36.32 177.87 35.64C179.03 34.96 179.93 33.98 180.57 32.7C181.25 31.38 181.59 29.78 181.59 27.9V11.76H188.79V42H182.43L181.89 36.96C180.97 38.72 179.63 40.12 177.87 41.16C176.15 42.2 174.13 42.72 171.81 42.72ZM208.861 42.72C206.181 42.72 203.841 42.3 201.841 41.46C199.881 40.58 198.321 39.38 197.161 37.86C196.041 36.3 195.381 34.52 195.181 32.52H202.381C202.581 33.36 202.941 34.14 203.461 34.86C203.981 35.54 204.681 36.08 205.561 36.48C206.481 36.88 207.561 37.08 208.801 37.08C210.001 37.08 210.981 36.92 211.741 36.6C212.501 36.24 213.061 35.78 213.421 35.22C213.781 34.66 213.961 34.06 213.961 33.42C213.961 32.46 213.701 31.72 213.181 31.2C212.661 30.68 211.901 30.28 210.901 30C209.941 29.68 208.781 29.38 207.421 29.1C205.981 28.82 204.581 28.48 203.221 28.08C201.901 27.64 200.701 27.1 199.621 26.46C198.581 25.82 197.741 25 197.101 24C196.501 23 196.201 21.78 196.201 20.34C196.201 18.58 196.661 17 197.581 15.6C198.541 14.2 199.901 13.1 201.661 12.3C203.461 11.46 205.601 11.04 208.081 11.04C211.601 11.04 214.401 11.86 216.481 13.5C218.601 15.1 219.841 17.36 220.201 20.28H213.361C213.161 19.16 212.601 18.3 211.681 17.7C210.761 17.06 209.541 16.74 208.021 16.74C206.461 16.74 205.261 17.04 204.421 17.64C203.621 18.2 203.221 18.96 203.221 19.92C203.221 20.52 203.461 21.08 203.941 21.6C204.461 22.08 205.201 22.5 206.161 22.86C207.121 23.18 208.301 23.5 209.701 23.82C211.941 24.26 213.921 24.78 215.641 25.38C217.361 25.98 218.721 26.86 219.721 28.02C220.721 29.18 221.221 30.82 221.221 32.94C221.261 34.86 220.761 36.56 219.721 38.04C218.721 39.52 217.301 40.68 215.461 41.52C213.621 42.32 211.421 42.72 208.861 42.72Z" fill="url(#paint0_linear_123_2)"/>
<g clip-path="url(#clip1_123_2)">
<path d="M1.92057 23.9917L12.5271 13.385" stroke="#636EFF" stroke-width="3.25" stroke-linecap="round" stroke-linejoin="round"/>
<path d="M12.6968 3.31591C10.1584 5.85432 10.1584 9.9699 12.6968 12.5083C15.2352 15.0467 19.3507 15.0467 21.8892 12.5083C24.4276 9.9699 24.4276 5.85432 21.8892 3.31591C19.3507 0.777507 15.2352 0.777507 12.6968 3.31591Z" fill="#636EFF" fill-opacity="0.25" stroke="#636EFF" stroke-width="2.75" stroke-linecap="round" stroke-linejoin="round"/>
<path d="M29.6067 19.6903L19 30.2969" stroke="#7257FF" stroke-width="3.25" stroke-linecap="round" stroke-linejoin="round"/>
<path d="M8.93091 30.4665C11.4693 27.9281 15.5849 27.9281 18.1233 30.4665C20.6617 33.005 20.6617 37.1205 18.1233 39.6589C15.5849 42.1973 11.4693 42.1973 8.93091 39.6589C6.3925 37.1205 6.3925 33.005 8.93091 30.4665Z" fill="#7257FF" fill-opacity="0.25" stroke="#7257FF" stroke-width="2.75" stroke-linecap="round" stroke-linejoin="round"/>
</g>
</g>
<defs>
<linearGradient id="paint0_linear_123_2" x1="47" y1="-0.243764" x2="225.267" y2="43.145" gradientUnits="userSpaceOnUse">
<stop stop-color="#4B7EFF"/>
<stop offset="0.995417" stop-color="#7C4CFE"/>
</linearGradient>
<clipPath id="clip0_123_2">
<rect width="222" height="43" fill="white"/>
</clipPath>
<clipPath id="clip1_123_2">
<rect width="41.2048" height="51.925" fill="white" transform="translate(9.13647 60.4919) rotate(-135)"/>
</clipPath>
</defs>
</svg>
