<svg xmlns="http://www.w3.org/2000/svg" version="1.1" xmlns:xlink="http://www.w3.org/1999/xlink" width="8.4608803" height="9.2953749"><svg xmlns="http://www.w3.org/2000/svg" version="1.1" xmlns:xlink="http://www.w3.org/1999/xlink" width="8.4608803" height="9.2953749"><svg version="1.1" width="8.4608803" height="9.2953749" id="svg1" sodipodi:docname="favicon.svg" inkscape:version="1.3.2 (091e20e, 2023-11-25, custom)" xmlns:inkscape="http://www.inkscape.org/namespaces/inkscape" xmlns:sodipodi="http://sodipodi.sourceforge.net/DTD/sodipodi-0.dtd" xmlns="http://www.w3.org/2000/svg" xmlns:svg="http://www.w3.org/2000/svg">
  <defs id="defs1"></defs>
  <svg width="8.4608803" height="9.2953749" viewBox="0 0 5.7624059 6.3307506" version="1.1" id="SvgjsSvg1009" xml:space="preserve" inkscape:version="1.3.2 (091e20e, 2023-11-25, custom)" sodipodi:docname="tura-logo.svg" style="fill:#3abdf7;fill-opacity:1"><sodipodi:namedview id="SvgjsSodipodi:namedview1008" pagecolor="#505050" bordercolor="#ffffff" borderopacity="1" inkscape:showpageshadow="false" inkscape:pageopacity="0" inkscape:pagecheckerboard="1" inkscape:deskcolor="#505050" inkscape:document-units="mm" inkscape:zoom="8.6778906" inkscape:cx="50.588331" inkscape:cy="-7.3174465" inkscape:window-width="1920" inkscape:window-height="1057" inkscape:window-x="-8" inkscape:window-y="-8" inkscape:window-maximized="1" inkscape:current-layer="svg1" inkscape:export-bgcolor="#00000000"></sodipodi:namedview><defs id="SvgjsDefs1007"></defs><g inkscape:label="Layer 1" inkscape:groupmode="layer" id="SvgjsG1006" transform="translate(-95.480394,-148.44796)" style="fill:#3abdf7;fill-opacity:1"><path style="fill:#3abdf7;fill-opacity:1;stroke-width:0.400354" d="m 98.024178,154.74096 c -0.104937,-0.0381 -2.059984,-1.16506 -2.225118,-1.28264 -0.05241,-0.0373 -0.145553,-0.16994 -0.206979,-0.2947 l -0.111687,-0.22684 v -1.28881 -1.28881 l 0.08881,-0.18643 c 0.155873,-0.32719 0.252603,-0.40108 1.374515,-1.04987 1.158639,-0.67004 1.27722,-0.7188 1.588936,-0.65342 0.203768,0.0427 2.243265,1.20086 2.422905,1.37583 0.0543,0.053 0.14121,0.1826 0.19304,0.28813 l 0.0942,0.19187 v 1.28807 1.28807 l -0.0888,0.18643 c -0.15515,0.32568 -0.25467,0.40223 -1.334844,1.02677 -0.559294,0.32337 -1.068749,0.60598 -1.132121,0.62801 -0.140724,0.0489 -0.526189,0.048 -0.662862,-0.002 z m 0.286585,-2.8734 v -0.983 h -0.42371 -0.423707 v 0.11864 0.11864 h 0.271172 0.271176 v 0.84176 c 0,0.46297 0.01017,0.85194 0.02258,0.86437 0.01245,0.0124 0.08107,0.0226 0.152535,0.0226 h 0.129939 z m 0.372862,0.11864 v -0.86436 h 0.288123 0.288119 v -0.11965 -0.11965 l -0.432183,0.009 -0.432182,0.009 -0.009,0.93168 c -0.005,0.51242 -0.0016,0.95096 0.0074,0.97453 0.0095,0.0247 0.07422,0.0429 0.153095,0.0429 h 0.136649 z m 0.576242,-1.25417 v -0.11864 h -0.898259 -0.898262 v 0.11864 0.11863 h 0.898262 0.898259 z" id="SvgjsPath1005"></path></g></svg>
  <style id="style1">@media (prefers-color-scheme: light) { :root { filter: none; } }
@media (prefers-color-scheme: dark) { :root { filter: none; } }
</style>
</svg></svg><style>@media (prefers-color-scheme: light) { :root { filter: none; } }
@media (prefers-color-scheme: dark) { :root { filter: none; } }
</style></svg>